<?xml version="1.0" standalone="no"?>
<!DOCTYPE svg PUBLIC "-//W3C//DTD SVG 20010904//EN"
 "http://www.w3.org/TR/2001/REC-SVG-20010904/DTD/svg10.dtd">
<svg version="1.0" xmlns="http://www.w3.org/2000/svg"
 width="512.000000pt" height="512.000000pt" viewBox="0 0 512.000000 512.000000"
 preserveAspectRatio="xMidYMid meet">

<g transform="translate(0.000000,512.000000) scale(0.100000,-0.100000)"
fill="#000000" stroke="none">
<path d="M2330 5109 c-204 -19 -464 -77 -646 -144 -55 -20 -166 -69 -249 -110
-266 -130 -445 -256 -654 -460 -228 -223 -374 -422 -511 -700 -94 -189 -139
-310 -185 -489 -113 -445 -113 -847 0 -1292 46 -179 91 -300 185 -489 137
-278 283 -477 511 -700 209 -204 388 -330 654 -460 181 -89 304 -135 479 -180
445 -113 847 -113 1292 0 314 80 631 234 904 439 117 87 337 301 435 421 162
200 332 499 420 739 95 260 155 598 155 876 0 278 -60 616 -155 876 -53 147
-183 403 -270 534 -198 298 -472 566 -770 755 -114 72 -360 193 -489 240 -336
123 -753 178 -1106 144z m-200 -869 c195 -13 416 -12 623 2 252 17 230 20 238
-25 3 -21 3 -53 0 -70 -7 -31 -8 -32 -77 -39 -96 -10 -166 -37 -182 -70 -23
-48 -32 -367 -32 -1178 0 -632 -3 -820 -14 -912 -83 -665 -466 -1063 -1056
-1095 -112 -6 -181 7 -261 48 -83 42 -120 200 -70 297 54 105 139 161 226 149
69 -10 101 -31 210 -137 55 -54 110 -103 122 -109 12 -6 42 -11 67 -11 118 0
186 152 217 485 7 85 13 485 16 1160 5 1012 0 1224 -27 1302 -15 41 -68 63
-170 70 -41 3 -78 11 -82 17 -9 14 -10 98 -2 121 5 13 16 15 58 10 28 -3 116
-10 196 -15z m1552 -2032 c56 -24 122 -92 150 -155 25 -57 22 -178 -6 -235
-25 -52 -88 -112 -144 -140 -70 -33 -169 -32 -244 5 -107 52 -162 143 -162
267 0 61 5 84 26 126 73 140 230 195 380 132z"/>
</g>
</svg>
